<svg width="179" height="80" viewBox="0 0 179 80" fill="none" xmlns="http://www.w3.org/2000/svg">
<g filter="url(#filter0_d_3:357)">
<rect x="20" y="12" width="139" height="40" rx="8" fill="black"/>
</g>
<path d="M57.4 22.054C56.98 22.054 56.612 21.964 56.296 21.784C55.984 21.604 55.744 21.35 55.576 21.022C55.408 20.69 55.324 20.302 55.324 19.858C55.324 19.418 55.408 19.034 55.576 18.706C55.744 18.374 55.984 18.12 56.296 17.944C56.612 17.764 56.98 17.674 57.4 17.674C57.688 17.674 57.958 17.72 58.21 17.812C58.466 17.9 58.678 18.024 58.846 18.184L58.594 18.748C58.402 18.592 58.21 18.48 58.018 18.412C57.83 18.34 57.628 18.304 57.412 18.304C57 18.304 56.68 18.438 56.452 18.706C56.228 18.974 56.116 19.358 56.116 19.858C56.116 20.362 56.228 20.75 56.452 21.022C56.676 21.29 56.996 21.424 57.412 21.424C57.628 21.424 57.83 21.39 58.018 21.322C58.21 21.25 58.402 21.136 58.594 20.98L58.846 21.544C58.678 21.704 58.466 21.83 58.21 21.922C57.958 22.01 57.688 22.054 57.4 22.054ZM61.3834 22.054C60.9714 22.054 60.6114 21.966 60.3034 21.79C59.9994 21.61 59.7634 21.356 59.5954 21.028C59.4314 20.696 59.3494 20.306 59.3494 19.858C59.3494 19.414 59.4314 19.028 59.5954 18.7C59.7594 18.368 59.9934 18.114 60.2974 17.938C60.6054 17.762 60.9674 17.674 61.3834 17.674C61.7994 17.674 62.1594 17.762 62.4634 17.938C62.7714 18.114 63.0054 18.368 63.1654 18.7C63.3294 19.028 63.4114 19.414 63.4114 19.858C63.4114 20.306 63.3294 20.696 63.1654 21.028C63.0014 21.356 62.7674 21.61 62.4634 21.79C62.1594 21.966 61.7994 22.054 61.3834 22.054ZM61.3834 21.436C61.7794 21.436 62.0874 21.3 62.3074 21.028C62.5274 20.756 62.6374 20.366 62.6374 19.858C62.6374 19.354 62.5274 18.968 62.3074 18.7C62.0874 18.428 61.7794 18.292 61.3834 18.292C60.9874 18.292 60.6794 18.426 60.4594 18.694C60.2394 18.962 60.1294 19.35 60.1294 19.858C60.1294 20.366 60.2394 20.756 60.4594 21.028C60.6794 21.3 60.9874 21.436 61.3834 21.436ZM68.3682 17.728V22H67.6842V19.348L66.5502 22H66.0402L64.9002 19.378V22H64.2162V17.728H64.8282L66.2982 21.07L67.7562 17.728H68.3682ZM69.3018 17.728H70.0758V22H69.3018V17.728ZM74.6011 17.728V22H74.0251L71.7211 19.006V22H71.0011V17.728H71.5771L73.8751 20.716V17.728H74.6011ZM79.0944 19.69V21.742C78.8984 21.838 78.6624 21.914 78.3864 21.97C78.1104 22.026 77.8284 22.054 77.5404 22.054C77.1004 22.054 76.7184 21.966 76.3944 21.79C76.0704 21.614 75.8224 21.362 75.6504 21.034C75.4784 20.706 75.3924 20.314 75.3924 19.858C75.3924 19.41 75.4784 19.022 75.6504 18.694C75.8224 18.366 76.0664 18.114 76.3824 17.938C76.7024 17.762 77.0764 17.674 77.5044 17.674C77.8044 17.674 78.0844 17.718 78.3444 17.806C78.6084 17.894 78.8284 18.018 79.0044 18.178L78.7404 18.742C78.5404 18.586 78.3444 18.474 78.1524 18.406C77.9604 18.338 77.7504 18.304 77.5224 18.304C77.0824 18.304 76.7484 18.436 76.5204 18.7C76.2964 18.964 76.1844 19.35 76.1844 19.858C76.1844 20.382 76.3004 20.778 76.5324 21.046C76.7644 21.31 77.1104 21.442 77.5704 21.442C77.8504 21.442 78.1264 21.404 78.3984 21.328V20.248H77.4744V19.69H79.0944ZM83.0584 22.054C82.7304 22.054 82.4224 22.01 82.1344 21.922C81.8504 21.834 81.6084 21.708 81.4084 21.544L81.6724 20.98C81.8804 21.136 82.0964 21.252 82.3204 21.328C82.5484 21.4 82.7964 21.436 83.0644 21.436C83.3604 21.436 83.5884 21.384 83.7484 21.28C83.9124 21.176 83.9944 21.03 83.9944 20.842C83.9944 20.682 83.9184 20.56 83.7664 20.476C83.6184 20.388 83.3724 20.306 83.0284 20.23C82.4924 20.114 82.1024 19.964 81.8584 19.78C81.6144 19.596 81.4924 19.328 81.4924 18.976C81.4924 18.724 81.5604 18.5 81.6964 18.304C81.8324 18.108 82.0244 17.954 82.2724 17.842C82.5244 17.73 82.8144 17.674 83.1424 17.674C83.4424 17.674 83.7264 17.72 83.9944 17.812C84.2664 17.9 84.4884 18.024 84.6604 18.184L84.4024 18.748C84.0224 18.444 83.6024 18.292 83.1424 18.292C82.8664 18.292 82.6484 18.35 82.4884 18.466C82.3284 18.578 82.2484 18.732 82.2484 18.928C82.2484 19.096 82.3184 19.224 82.4584 19.312C82.6024 19.4 82.8464 19.482 83.1904 19.558C83.5464 19.642 83.8364 19.734 84.0604 19.834C84.2844 19.93 84.4564 20.056 84.5764 20.212C84.6964 20.364 84.7564 20.556 84.7564 20.788C84.7564 21.044 84.6884 21.268 84.5524 21.46C84.4164 21.648 84.2204 21.794 83.9644 21.898C83.7084 22.002 83.4064 22.054 83.0584 22.054ZM87.3697 22.054C86.9577 22.054 86.5977 21.966 86.2897 21.79C85.9857 21.61 85.7497 21.356 85.5817 21.028C85.4177 20.696 85.3357 20.306 85.3357 19.858C85.3357 19.414 85.4177 19.028 85.5817 18.7C85.7457 18.368 85.9797 18.114 86.2837 17.938C86.5917 17.762 86.9537 17.674 87.3697 17.674C87.7857 17.674 88.1457 17.762 88.4497 17.938C88.7577 18.114 88.9917 18.368 89.1517 18.7C89.3157 19.028 89.3977 19.414 89.3977 19.858C89.3977 20.306 89.3157 20.696 89.1517 21.028C88.9877 21.356 88.7537 21.61 88.4497 21.79C88.1457 21.966 87.7857 22.054 87.3697 22.054ZM87.3697 21.436C87.7657 21.436 88.0737 21.3 88.2937 21.028C88.5137 20.756 88.6237 20.366 88.6237 19.858C88.6237 19.354 88.5137 18.968 88.2937 18.7C88.0737 18.428 87.7657 18.292 87.3697 18.292C86.9737 18.292 86.6657 18.426 86.4457 18.694C86.2257 18.962 86.1157 19.35 86.1157 19.858C86.1157 20.366 86.2257 20.756 86.4457 21.028C86.6657 21.3 86.9737 21.436 87.3697 21.436ZM92.0865 22.054C91.6745 22.054 91.3145 21.966 91.0065 21.79C90.7025 21.61 90.4665 21.356 90.2985 21.028C90.1345 20.696 90.0525 20.306 90.0525 19.858C90.0525 19.414 90.1345 19.028 90.2985 18.7C90.4625 18.368 90.6965 18.114 91.0005 17.938C91.3085 17.762 91.6705 17.674 92.0865 17.674C92.5025 17.674 92.8625 17.762 93.1665 17.938C93.4745 18.114 93.7085 18.368 93.8685 18.7C94.0325 19.028 94.1145 19.414 94.1145 19.858C94.1145 20.306 94.0325 20.696 93.8685 21.028C93.7045 21.356 93.4705 21.61 93.1665 21.79C92.8625 21.966 92.5025 22.054 92.0865 22.054ZM92.0865 21.436C92.4825 21.436 92.7905 21.3 93.0105 21.028C93.2305 20.756 93.3405 20.366 93.3405 19.858C93.3405 19.354 93.2305 18.968 93.0105 18.7C92.7905 18.428 92.4825 18.292 92.0865 18.292C91.6905 18.292 91.3825 18.426 91.1625 18.694C90.9425 18.962 90.8325 19.35 90.8325 19.858C90.8325 20.366 90.9425 20.756 91.1625 21.028C91.3825 21.3 91.6905 21.436 92.0865 21.436ZM98.5073 17.728V22H97.9313L95.6273 19.006V22H94.9073V17.728H95.4833L97.7813 20.716V17.728H98.5073ZM102.085 18.364H100.693V17.728H104.263V18.364H102.865V22H102.085V18.364ZM106.442 22.054C106.03 22.054 105.67 21.966 105.362 21.79C105.058 21.61 104.822 21.356 104.654 21.028C104.49 20.696 104.408 20.306 104.408 19.858C104.408 19.414 104.49 19.028 104.654 18.7C104.818 18.368 105.052 18.114 105.356 17.938C105.664 17.762 106.026 17.674 106.442 17.674C106.858 17.674 107.218 17.762 107.522 17.938C107.83 18.114 108.064 18.368 108.224 18.7C108.388 19.028 108.47 19.414 108.47 19.858C108.47 20.306 108.388 20.696 108.224 21.028C108.06 21.356 107.826 21.61 107.522 21.79C107.218 21.966 106.858 22.054 106.442 22.054ZM106.442 21.436C106.838 21.436 107.146 21.3 107.366 21.028C107.586 20.756 107.696 20.366 107.696 19.858C107.696 19.354 107.586 18.968 107.366 18.7C107.146 18.428 106.838 18.292 106.442 18.292C106.046 18.292 105.738 18.426 105.518 18.694C105.298 18.962 105.188 19.35 105.188 19.858C105.188 20.366 105.298 20.756 105.518 21.028C105.738 21.3 106.046 21.436 106.442 21.436Z" fill="white"/>
<path d="M65.736 36.84V42.312C65.2133 42.568 64.584 42.7707 63.848 42.92C63.112 43.0693 62.36 43.144 61.592 43.144C60.4187 43.144 59.4 42.9093 58.536 42.44C57.672 41.9707 57.0107 41.2987 56.552 40.424C56.0933 39.5493 55.864 38.504 55.864 37.288C55.864 36.0933 56.0933 35.0587 56.552 34.184C57.0107 33.3093 57.6613 32.6373 58.504 32.168C59.3573 31.6987 60.3547 31.464 61.496 31.464C62.296 31.464 63.0427 31.5813 63.736 31.816C64.44 32.0507 65.0267 32.3813 65.496 32.808L64.792 34.312C64.2587 33.896 63.736 33.5973 63.224 33.416C62.712 33.2347 62.152 33.144 61.544 33.144C60.3707 33.144 59.48 33.496 58.872 34.2C58.2747 34.904 57.976 35.9333 57.976 37.288C57.976 38.6853 58.2853 39.7413 58.904 40.456C59.5227 41.16 60.4453 41.512 61.672 41.512C62.4187 41.512 63.1547 41.4107 63.88 41.208V38.328H61.416V36.84H65.736ZM71.5801 43.128C70.7588 43.128 70.0335 42.9573 69.4041 42.616C68.7855 42.2747 68.3055 41.7893 67.9641 41.16C67.6335 40.52 67.4681 39.7733 67.4681 38.92C67.4681 38.0667 67.6335 37.3253 67.9641 36.696C68.3055 36.056 68.7855 35.5653 69.4041 35.224C70.0335 34.8827 70.7588 34.712 71.5801 34.712C72.3908 34.712 73.1055 34.8827 73.7241 35.224C74.3428 35.5653 74.8175 36.056 75.1481 36.696C75.4895 37.3253 75.6601 38.0667 75.6601 38.92C75.6601 39.7733 75.4895 40.52 75.1481 41.16C74.8175 41.7893 74.3428 42.2747 73.7241 42.616C73.1055 42.9573 72.3908 43.128 71.5801 43.128ZM71.5641 41.56C72.2468 41.56 72.7641 41.3413 73.1161 40.904C73.4788 40.456 73.6601 39.7947 73.6601 38.92C73.6601 38.056 73.4788 37.4 73.1161 36.952C72.7535 36.4933 72.2415 36.264 71.5801 36.264C70.9081 36.264 70.3908 36.4933 70.0281 36.952C69.6655 37.4 69.4841 38.056 69.4841 38.92C69.4841 39.7947 69.6601 40.456 70.0121 40.904C70.3748 41.3413 70.8921 41.56 71.5641 41.56ZM81.0489 43.128C80.2275 43.128 79.5022 42.9573 78.8729 42.616C78.2542 42.2747 77.7742 41.7893 77.4329 41.16C77.1022 40.52 76.9369 39.7733 76.9369 38.92C76.9369 38.0667 77.1022 37.3253 77.4329 36.696C77.7742 36.056 78.2542 35.5653 78.8729 35.224C79.5022 34.8827 80.2275 34.712 81.0489 34.712C81.8595 34.712 82.5742 34.8827 83.1929 35.224C83.8115 35.5653 84.2862 36.056 84.6169 36.696C84.9582 37.3253 85.1289 38.0667 85.1289 38.92C85.1289 39.7733 84.9582 40.52 84.6169 41.16C84.2862 41.7893 83.8115 42.2747 83.1929 42.616C82.5742 42.9573 81.8595 43.128 81.0489 43.128ZM81.0329 41.56C81.7155 41.56 82.2329 41.3413 82.5849 40.904C82.9475 40.456 83.1289 39.7947 83.1289 38.92C83.1289 38.056 82.9475 37.4 82.5849 36.952C82.2222 36.4933 81.7102 36.264 81.0489 36.264C80.3769 36.264 79.8595 36.4933 79.4969 36.952C79.1342 37.4 78.9529 38.056 78.9529 38.92C78.9529 39.7947 79.1289 40.456 79.4809 40.904C79.8435 41.3413 80.3609 41.56 81.0329 41.56ZM94.6616 34.92V42.744C94.6616 44.0027 94.315 44.9573 93.6216 45.608C92.9283 46.2587 91.9096 46.584 90.5656 46.584C89.3176 46.584 88.219 46.3227 87.2696 45.8L87.5896 44.28C88.571 44.792 89.547 45.048 90.5176 45.048C91.9576 45.048 92.6776 44.3333 92.6776 42.904V41.304C92.4323 41.7413 92.075 42.0987 91.6056 42.376C91.1363 42.6427 90.6083 42.776 90.0216 42.776C89.3176 42.776 88.6883 42.6107 88.1336 42.28C87.5896 41.9387 87.163 41.464 86.8536 40.856C86.555 40.2373 86.4056 39.5333 86.4056 38.744C86.4056 37.9547 86.555 37.256 86.8536 36.648C87.163 36.0293 87.5896 35.5547 88.1336 35.224C88.6883 34.8827 89.3176 34.712 90.0216 34.712C90.619 34.712 91.147 34.84 91.6056 35.096C92.075 35.3413 92.4323 35.688 92.6776 36.136V34.92H94.6616ZM90.5496 41.208C91.211 41.208 91.7283 40.9893 92.1016 40.552C92.4856 40.1147 92.6776 39.512 92.6776 38.744C92.6776 37.976 92.491 37.3733 92.1176 36.936C91.7443 36.4987 91.2216 36.28 90.5496 36.28C89.8883 36.28 89.3656 36.4987 88.9816 36.936C88.6083 37.3733 88.4216 37.976 88.4216 38.744C88.4216 39.512 88.6083 40.1147 88.9816 40.552C89.3656 40.9893 89.8883 41.208 90.5496 41.208ZM96.8224 31.224H98.8064V43H96.8224V31.224ZM108.066 39.064H102.498C102.541 39.928 102.754 40.568 103.138 40.984C103.533 41.3893 104.114 41.592 104.882 41.592C105.768 41.592 106.589 41.304 107.346 40.728L107.922 42.104C107.538 42.4133 107.064 42.664 106.498 42.856C105.944 43.0373 105.378 43.128 104.802 43.128C103.48 43.128 102.44 42.7547 101.682 42.008C100.925 41.2613 100.546 40.2373 100.546 38.936C100.546 38.1147 100.712 37.384 101.042 36.744C101.373 36.104 101.837 35.608 102.434 35.256C103.032 34.8933 103.709 34.712 104.466 34.712C105.576 34.712 106.45 35.0747 107.09 35.8C107.741 36.5147 108.066 37.5013 108.066 38.76V39.064ZM104.514 36.152C103.981 36.152 103.544 36.312 103.202 36.632C102.872 36.9413 102.658 37.3947 102.562 37.992H106.322C106.258 37.384 106.072 36.9253 105.762 36.616C105.464 36.3067 105.048 36.152 104.514 36.152ZM114.295 31.608H119.239C120.465 31.608 121.42 31.9067 122.102 32.504C122.785 33.0907 123.127 33.896 123.127 34.92C123.127 35.944 122.78 36.7547 122.087 37.352C121.404 37.9493 120.455 38.248 119.239 38.248H116.359V43H114.295V31.608ZM118.999 36.648C119.713 36.648 120.252 36.504 120.615 36.216C120.988 35.9173 121.175 35.4907 121.175 34.936C121.175 34.3707 120.993 33.944 120.631 33.656C120.268 33.3573 119.724 33.208 118.999 33.208H116.359V36.648H118.999ZM124.807 31.224H126.791V43H124.807V31.224ZM136.707 34.92V43H134.739V41.704C134.493 42.152 134.141 42.504 133.683 42.76C133.224 43.0053 132.701 43.128 132.115 43.128C131.411 43.128 130.787 42.9573 130.243 42.616C129.699 42.2747 129.277 41.7893 128.979 41.16C128.68 40.5307 128.531 39.8 128.531 38.968C128.531 38.136 128.68 37.4 128.979 36.76C129.288 36.1093 129.715 35.608 130.259 35.256C130.803 34.8933 131.421 34.712 132.115 34.712C132.701 34.712 133.224 34.84 133.683 35.096C134.141 35.3413 134.493 35.688 134.739 36.136V34.92H136.707ZM132.659 41.56C133.32 41.56 133.832 41.3307 134.195 40.872C134.557 40.4133 134.739 39.768 134.739 38.936C134.739 38.0827 134.557 37.4267 134.195 36.968C133.832 36.5093 133.315 36.28 132.643 36.28C131.981 36.28 131.464 36.52 131.091 37C130.728 37.4693 130.547 38.1253 130.547 38.968C130.547 39.8 130.728 40.44 131.091 40.888C131.464 41.336 131.987 41.56 132.659 41.56ZM146.533 34.92L142.773 43.544C142.346 44.5467 141.802 45.2773 141.141 45.736C140.48 46.1947 139.664 46.4987 138.693 46.648L138.245 45.112C139.002 44.9413 139.568 44.7227 139.941 44.456C140.325 44.2 140.634 43.816 140.869 43.304L141.125 42.712L137.765 34.92H139.861L142.181 40.728L144.549 34.92H146.533Z" fill="white"/>
<path d="M44.1814 27.7157L32.717 21.0847C32.5729 21 32.3917 21.0047 32.2523 21.0894C32.1082 21.174 32.0199 21.3245 32.0199 21.4938C32.0199 21.4938 32.0246 22.1052 32.0292 23.1116L40.38 31.5626L44.1814 27.7157Z" fill="url(#paint0_linear_3:357)"/>
<path d="M32.0292 23.1116C32.0431 26.7422 32.085 35.5554 32.1035 39.9431L40.3847 31.5626L32.0292 23.1116Z" fill="url(#paint1_linear_3:357)"/>
<path d="M50.7431 31.5109L44.1814 27.7157L40.3754 31.5626L44.6693 35.9081L50.7477 32.3245C50.8918 32.2399 50.9801 32.0847 50.9801 31.9201C50.9801 31.7508 50.8871 31.5956 50.7431 31.5109Z" fill="url(#paint2_linear_3:357)"/>
<path d="M32.0989 39.9432C32.1082 41.5092 32.1129 42.5109 32.1129 42.5109C32.1129 42.6802 32.2012 42.8354 32.3452 42.9154C32.4893 43 32.6659 43 32.8099 42.9154L44.674 35.9128L40.3801 31.5674L32.0989 39.9432Z" fill="url(#paint3_linear_3:357)"/>
<defs>
<filter id="filter0_d_3:357" x="0" y="0" width="179" height="80" filterUnits="userSpaceOnUse" color-interpolation-filters="sRGB">
<feFlood flood-opacity="0" result="BackgroundImageFix"/>
<feColorMatrix in="SourceAlpha" type="matrix" values="0 0 0 0 0 0 0 0 0 0 0 0 0 0 0 0 0 0 127 0" result="hardAlpha"/>
<feOffset dy="8"/>
<feGaussianBlur stdDeviation="10"/>
<feColorMatrix type="matrix" values="0 0 0 0 0 0 0 0 0 0 0 0 0 0 0 0 0 0 0.15 0"/>
<feBlend mode="normal" in2="BackgroundImageFix" result="effect1_dropShadow_3:357"/>
<feBlend mode="normal" in="SourceGraphic" in2="effect1_dropShadow_3:357" result="shape"/>
</filter>
<linearGradient id="paint0_linear_3:357" x1="32.0199" y1="26.2951" x2="44.1835" y2="26.2951" gradientUnits="userSpaceOnUse">
<stop stop-color="#63BE6B"/>
<stop offset="0.506" stop-color="#5BBC6A"/>
<stop offset="1" stop-color="#4AB96A"/>
</linearGradient>
<linearGradient id="paint1_linear_3:357" x1="32.027" y1="31.5294" x2="40.3798" y2="31.5294" gradientUnits="userSpaceOnUse">
<stop stop-color="#3EC6F2"/>
<stop offset="1" stop-color="#45AFE3"/>
</linearGradient>
<linearGradient id="paint2_linear_3:357" x1="40.3799" y1="31.8149" x2="50.979" y2="31.8149" gradientUnits="userSpaceOnUse">
<stop stop-color="#FAA51A"/>
<stop offset="0.387" stop-color="#FAB716"/>
<stop offset="0.741" stop-color="#FAC412"/>
<stop offset="1" stop-color="#FAC80F"/>
</linearGradient>
<linearGradient id="paint3_linear_3:357" x1="32.101" y1="37.2729" x2="44.6738" y2="37.2729" gradientUnits="userSpaceOnUse">
<stop stop-color="#EC3B50"/>
<stop offset="1" stop-color="#E7515B"/>
</linearGradient>
</defs>
</svg>
