<svg width="163" height="80" viewBox="0 0 163 80" fill="none" xmlns="http://www.w3.org/2000/svg">
<g filter="url(#filter0_d_3:352)">
<rect x="20" y="12" width="123" height="40" rx="8" fill="black"/>
</g>
<path d="M41.9315 22.9145C43.3823 21.0093 45.3991 21 45.3991 21C45.3991 21 45.6991 22.7912 44.2579 24.5167C42.719 26.3592 40.9699 26.0577 40.9699 26.0577C40.9699 26.0577 40.6415 24.6087 41.9315 22.9145ZM41.1544 27.3124C41.9008 27.3124 43.2859 26.2902 45.0889 26.2902C48.1923 26.2902 49.4132 28.4906 49.4132 28.4906C49.4132 28.4906 47.0254 29.7071 47.0254 32.6588C47.0254 35.9886 50 37.1361 50 37.1361C50 37.1361 47.9206 42.9677 45.112 42.9677C43.822 42.9677 42.819 42.1015 41.4598 42.1015C40.0747 42.1015 38.7001 43 37.8049 43C35.2401 43.0001 32 37.4682 32 33.0215C32 28.6466 34.7426 26.3515 37.315 26.3515C38.9873 26.3515 40.285 27.3124 41.1544 27.3124Z" fill="white"/>
<path d="M56.4 22.054C55.98 22.054 55.612 21.964 55.296 21.784C54.984 21.604 54.744 21.35 54.576 21.022C54.408 20.69 54.324 20.302 54.324 19.858C54.324 19.418 54.408 19.034 54.576 18.706C54.744 18.374 54.984 18.12 55.296 17.944C55.612 17.764 55.98 17.674 56.4 17.674C56.688 17.674 56.958 17.72 57.21 17.812C57.466 17.9 57.678 18.024 57.846 18.184L57.594 18.748C57.402 18.592 57.21 18.48 57.018 18.412C56.83 18.34 56.628 18.304 56.412 18.304C56 18.304 55.68 18.438 55.452 18.706C55.228 18.974 55.116 19.358 55.116 19.858C55.116 20.362 55.228 20.75 55.452 21.022C55.676 21.29 55.996 21.424 56.412 21.424C56.628 21.424 56.83 21.39 57.018 21.322C57.21 21.25 57.402 21.136 57.594 20.98L57.846 21.544C57.678 21.704 57.466 21.83 57.21 21.922C56.958 22.01 56.688 22.054 56.4 22.054ZM60.3834 22.054C59.9714 22.054 59.6114 21.966 59.3034 21.79C58.9994 21.61 58.7634 21.356 58.5954 21.028C58.4314 20.696 58.3494 20.306 58.3494 19.858C58.3494 19.414 58.4314 19.028 58.5954 18.7C58.7594 18.368 58.9934 18.114 59.2974 17.938C59.6054 17.762 59.9674 17.674 60.3834 17.674C60.7994 17.674 61.1594 17.762 61.4634 17.938C61.7714 18.114 62.0054 18.368 62.1654 18.7C62.3294 19.028 62.4114 19.414 62.4114 19.858C62.4114 20.306 62.3294 20.696 62.1654 21.028C62.0014 21.356 61.7674 21.61 61.4634 21.79C61.1594 21.966 60.7994 22.054 60.3834 22.054ZM60.3834 21.436C60.7794 21.436 61.0874 21.3 61.3074 21.028C61.5274 20.756 61.6374 20.366 61.6374 19.858C61.6374 19.354 61.5274 18.968 61.3074 18.7C61.0874 18.428 60.7794 18.292 60.3834 18.292C59.9874 18.292 59.6794 18.426 59.4594 18.694C59.2394 18.962 59.1294 19.35 59.1294 19.858C59.1294 20.366 59.2394 20.756 59.4594 21.028C59.6794 21.3 59.9874 21.436 60.3834 21.436ZM67.3682 17.728V22H66.6842V19.348L65.5502 22H65.0402L63.9002 19.378V22H63.2162V17.728H63.8282L65.2982 21.07L66.7562 17.728H67.3682ZM68.3018 17.728H69.0758V22H68.3018V17.728ZM73.6011 17.728V22H73.0251L70.7211 19.006V22H70.0011V17.728H70.5771L72.8751 20.716V17.728H73.6011ZM78.0944 19.69V21.742C77.8984 21.838 77.6624 21.914 77.3864 21.97C77.1104 22.026 76.8284 22.054 76.5404 22.054C76.1004 22.054 75.7184 21.966 75.3944 21.79C75.0704 21.614 74.8224 21.362 74.6504 21.034C74.4784 20.706 74.3924 20.314 74.3924 19.858C74.3924 19.41 74.4784 19.022 74.6504 18.694C74.8224 18.366 75.0664 18.114 75.3824 17.938C75.7024 17.762 76.0764 17.674 76.5044 17.674C76.8044 17.674 77.0844 17.718 77.3444 17.806C77.6084 17.894 77.8284 18.018 78.0044 18.178L77.7404 18.742C77.5404 18.586 77.3444 18.474 77.1524 18.406C76.9604 18.338 76.7504 18.304 76.5224 18.304C76.0824 18.304 75.7484 18.436 75.5204 18.7C75.2964 18.964 75.1844 19.35 75.1844 19.858C75.1844 20.382 75.3004 20.778 75.5324 21.046C75.7644 21.31 76.1104 21.442 76.5704 21.442C76.8504 21.442 77.1264 21.404 77.3984 21.328V20.248H76.4744V19.69H78.0944ZM82.0584 22.054C81.7304 22.054 81.4224 22.01 81.1344 21.922C80.8504 21.834 80.6084 21.708 80.4084 21.544L80.6724 20.98C80.8804 21.136 81.0964 21.252 81.3204 21.328C81.5484 21.4 81.7964 21.436 82.0644 21.436C82.3604 21.436 82.5884 21.384 82.7484 21.28C82.9124 21.176 82.9944 21.03 82.9944 20.842C82.9944 20.682 82.9184 20.56 82.7664 20.476C82.6184 20.388 82.3724 20.306 82.0284 20.23C81.4924 20.114 81.1024 19.964 80.8584 19.78C80.6144 19.596 80.4924 19.328 80.4924 18.976C80.4924 18.724 80.5604 18.5 80.6964 18.304C80.8324 18.108 81.0244 17.954 81.2724 17.842C81.5244 17.73 81.8144 17.674 82.1424 17.674C82.4424 17.674 82.7264 17.72 82.9944 17.812C83.2664 17.9 83.4884 18.024 83.6604 18.184L83.4024 18.748C83.0224 18.444 82.6024 18.292 82.1424 18.292C81.8664 18.292 81.6484 18.35 81.4884 18.466C81.3284 18.578 81.2484 18.732 81.2484 18.928C81.2484 19.096 81.3184 19.224 81.4584 19.312C81.6024 19.4 81.8464 19.482 82.1904 19.558C82.5464 19.642 82.8364 19.734 83.0604 19.834C83.2844 19.93 83.4564 20.056 83.5764 20.212C83.6964 20.364 83.7564 20.556 83.7564 20.788C83.7564 21.044 83.6884 21.268 83.5524 21.46C83.4164 21.648 83.2204 21.794 82.9644 21.898C82.7084 22.002 82.4064 22.054 82.0584 22.054ZM86.3697 22.054C85.9577 22.054 85.5977 21.966 85.2897 21.79C84.9857 21.61 84.7497 21.356 84.5817 21.028C84.4177 20.696 84.3357 20.306 84.3357 19.858C84.3357 19.414 84.4177 19.028 84.5817 18.7C84.7457 18.368 84.9797 18.114 85.2837 17.938C85.5917 17.762 85.9537 17.674 86.3697 17.674C86.7857 17.674 87.1457 17.762 87.4497 17.938C87.7577 18.114 87.9917 18.368 88.1517 18.7C88.3157 19.028 88.3977 19.414 88.3977 19.858C88.3977 20.306 88.3157 20.696 88.1517 21.028C87.9877 21.356 87.7537 21.61 87.4497 21.79C87.1457 21.966 86.7857 22.054 86.3697 22.054ZM86.3697 21.436C86.7657 21.436 87.0737 21.3 87.2937 21.028C87.5137 20.756 87.6237 20.366 87.6237 19.858C87.6237 19.354 87.5137 18.968 87.2937 18.7C87.0737 18.428 86.7657 18.292 86.3697 18.292C85.9737 18.292 85.6657 18.426 85.4457 18.694C85.2257 18.962 85.1157 19.35 85.1157 19.858C85.1157 20.366 85.2257 20.756 85.4457 21.028C85.6657 21.3 85.9737 21.436 86.3697 21.436ZM91.0865 22.054C90.6745 22.054 90.3145 21.966 90.0065 21.79C89.7025 21.61 89.4665 21.356 89.2985 21.028C89.1345 20.696 89.0525 20.306 89.0525 19.858C89.0525 19.414 89.1345 19.028 89.2985 18.7C89.4625 18.368 89.6965 18.114 90.0005 17.938C90.3085 17.762 90.6705 17.674 91.0865 17.674C91.5025 17.674 91.8625 17.762 92.1665 17.938C92.4745 18.114 92.7085 18.368 92.8685 18.7C93.0325 19.028 93.1145 19.414 93.1145 19.858C93.1145 20.306 93.0325 20.696 92.8685 21.028C92.7045 21.356 92.4705 21.61 92.1665 21.79C91.8625 21.966 91.5025 22.054 91.0865 22.054ZM91.0865 21.436C91.4825 21.436 91.7905 21.3 92.0105 21.028C92.2305 20.756 92.3405 20.366 92.3405 19.858C92.3405 19.354 92.2305 18.968 92.0105 18.7C91.7905 18.428 91.4825 18.292 91.0865 18.292C90.6905 18.292 90.3825 18.426 90.1625 18.694C89.9425 18.962 89.8325 19.35 89.8325 19.858C89.8325 20.366 89.9425 20.756 90.1625 21.028C90.3825 21.3 90.6905 21.436 91.0865 21.436ZM97.5073 17.728V22H96.9313L94.6273 19.006V22H93.9073V17.728H94.4833L96.7813 20.716V17.728H97.5073ZM101.085 18.364H99.6931V17.728H103.263V18.364H101.865V22H101.085V18.364ZM105.442 22.054C105.03 22.054 104.67 21.966 104.362 21.79C104.058 21.61 103.822 21.356 103.654 21.028C103.49 20.696 103.408 20.306 103.408 19.858C103.408 19.414 103.49 19.028 103.654 18.7C103.818 18.368 104.052 18.114 104.356 17.938C104.664 17.762 105.026 17.674 105.442 17.674C105.858 17.674 106.218 17.762 106.522 17.938C106.83 18.114 107.064 18.368 107.224 18.7C107.388 19.028 107.47 19.414 107.47 19.858C107.47 20.306 107.388 20.696 107.224 21.028C107.06 21.356 106.826 21.61 106.522 21.79C106.218 21.966 105.858 22.054 105.442 22.054ZM105.442 21.436C105.838 21.436 106.146 21.3 106.366 21.028C106.586 20.756 106.696 20.366 106.696 19.858C106.696 19.354 106.586 18.968 106.366 18.7C106.146 18.428 105.838 18.292 105.442 18.292C105.046 18.292 104.738 18.426 104.518 18.694C104.298 18.962 104.188 19.35 104.188 19.858C104.188 20.366 104.298 20.756 104.518 21.028C104.738 21.3 105.046 21.436 105.442 21.436Z" fill="white"/>
<path d="M62.8 39.328H57.232L56.08 42H54L59.152 30.608H60.832L66 42H63.936L62.8 39.328ZM62.112 37.728L60.016 32.848L57.92 37.728H62.112ZM71.696 33.712C72.3893 33.712 73.0027 33.8933 73.536 34.256C74.08 34.608 74.5013 35.1093 74.8 35.76C75.1093 36.4 75.264 37.136 75.264 37.968C75.264 38.8 75.1147 39.5307 74.816 40.16C74.5173 40.7893 74.096 41.2747 73.552 41.616C73.0187 41.9573 72.4 42.128 71.696 42.128C71.1093 42.128 70.5867 42.0053 70.128 41.76C69.6693 41.504 69.3173 41.152 69.072 40.704V45.456H67.088V36.208C67.088 35.3547 67.0453 34.592 66.96 33.92H68.832L68.992 35.312C69.2053 34.8107 69.552 34.4213 70.032 34.144C70.512 33.856 71.0667 33.712 71.696 33.712ZM71.152 40.56C71.824 40.56 72.3413 40.336 72.704 39.888C73.0667 39.44 73.248 38.8 73.248 37.968C73.248 37.1253 73.0667 36.4693 72.704 36C72.3413 35.52 71.8293 35.28 71.168 35.28C70.4853 35.28 69.9627 35.5093 69.6 35.968C69.2373 36.4267 69.056 37.0827 69.056 37.936C69.056 38.7787 69.2373 39.4293 69.6 39.888C69.9627 40.336 70.48 40.56 71.152 40.56ZM81.6179 33.712C82.3112 33.712 82.9245 33.8933 83.4579 34.256C84.0019 34.608 84.4232 35.1093 84.7219 35.76C85.0312 36.4 85.1859 37.136 85.1859 37.968C85.1859 38.8 85.0365 39.5307 84.7379 40.16C84.4392 40.7893 84.0179 41.2747 83.4739 41.616C82.9405 41.9573 82.3219 42.128 81.6179 42.128C81.0312 42.128 80.5085 42.0053 80.0499 41.76C79.5912 41.504 79.2392 41.152 78.9939 40.704V45.456H77.0099V36.208C77.0099 35.3547 76.9672 34.592 76.8819 33.92H78.7539L78.9139 35.312C79.1272 34.8107 79.4739 34.4213 79.9539 34.144C80.4339 33.856 80.9885 33.712 81.6179 33.712ZM81.0739 40.56C81.7459 40.56 82.2632 40.336 82.6259 39.888C82.9885 39.44 83.1699 38.8 83.1699 37.968C83.1699 37.1253 82.9885 36.4693 82.6259 36C82.2632 35.52 81.7512 35.28 81.0899 35.28C80.4072 35.28 79.8845 35.5093 79.5219 35.968C79.1592 36.4267 78.9779 37.0827 78.9779 37.936C78.9779 38.7787 79.1592 39.4293 79.5219 39.888C79.8845 40.336 80.4019 40.56 81.0739 40.56ZM95.3224 42.144C94.4477 42.144 93.6264 42.0267 92.8584 41.792C92.101 41.5573 91.4557 41.2213 90.9224 40.784L91.6264 39.28C92.181 39.696 92.757 40.0053 93.3544 40.208C93.9624 40.4 94.6237 40.496 95.3384 40.496C96.1277 40.496 96.7357 40.3573 97.1624 40.08C97.5997 39.8027 97.8184 39.4133 97.8184 38.912C97.8184 38.4853 97.6157 38.16 97.2104 37.936C96.8157 37.7013 96.1597 37.4827 95.2424 37.28C93.813 36.9707 92.773 36.5707 92.1224 36.08C91.4717 35.5893 91.1464 34.8747 91.1464 33.936C91.1464 33.264 91.3277 32.6667 91.6904 32.144C92.053 31.6213 92.565 31.2107 93.2264 30.912C93.8984 30.6133 94.6717 30.464 95.5464 30.464C96.3464 30.464 97.1037 30.5867 97.8184 30.832C98.5437 31.0667 99.1357 31.3973 99.5944 31.824L98.9064 33.328C97.893 32.5173 96.773 32.112 95.5464 32.112C94.8104 32.112 94.229 32.2667 93.8024 32.576C93.3757 32.8747 93.1624 33.2853 93.1624 33.808C93.1624 34.256 93.349 34.5973 93.7224 34.832C94.1064 35.0667 94.757 35.2853 95.6744 35.488C96.6237 35.712 97.397 35.9573 97.9944 36.224C98.5917 36.48 99.0504 36.816 99.3704 37.232C99.6904 37.6373 99.8504 38.1493 99.8504 38.768C99.8504 39.4507 99.669 40.048 99.3064 40.56C98.9437 41.0613 98.421 41.4507 97.7384 41.728C97.0557 42.0053 96.2504 42.144 95.3224 42.144ZM104.054 35.424V39.04C104.054 39.9893 104.497 40.464 105.382 40.464C105.627 40.464 105.894 40.4213 106.182 40.336V41.92C105.83 42.048 105.403 42.112 104.902 42.112C103.985 42.112 103.281 41.856 102.79 41.344C102.299 40.832 102.054 40.096 102.054 39.136V35.424H100.502V33.92H102.054V31.952L104.054 31.28V33.92H106.198V35.424H104.054ZM111.236 42.128C110.415 42.128 109.69 41.9573 109.06 41.616C108.442 41.2747 107.962 40.7893 107.62 40.16C107.29 39.52 107.124 38.7733 107.124 37.92C107.124 37.0667 107.29 36.3253 107.62 35.696C107.962 35.056 108.442 34.5653 109.06 34.224C109.69 33.8827 110.415 33.712 111.236 33.712C112.047 33.712 112.762 33.8827 113.38 34.224C113.999 34.5653 114.474 35.056 114.804 35.696C115.146 36.3253 115.316 37.0667 115.316 37.92C115.316 38.7733 115.146 39.52 114.804 40.16C114.474 40.7893 113.999 41.2747 113.38 41.616C112.762 41.9573 112.047 42.128 111.236 42.128ZM111.22 40.56C111.903 40.56 112.42 40.3413 112.772 39.904C113.135 39.456 113.316 38.7947 113.316 37.92C113.316 37.056 113.135 36.4 112.772 35.952C112.41 35.4933 111.898 35.264 111.236 35.264C110.564 35.264 110.047 35.4933 109.684 35.952C109.322 36.4 109.14 37.056 109.14 37.92C109.14 38.7947 109.316 39.456 109.668 39.904C110.031 40.3413 110.548 40.56 111.22 40.56ZM121.393 33.728C121.702 33.728 121.969 33.7707 122.193 33.856L122.177 35.68C121.836 35.5413 121.484 35.472 121.121 35.472C120.438 35.472 119.916 35.6693 119.553 36.064C119.201 36.4587 119.025 36.9813 119.025 37.632V42H117.041V36.208C117.041 35.3547 116.998 34.592 116.913 33.92H118.785L118.945 35.344C119.148 34.8213 119.468 34.4213 119.905 34.144C120.342 33.8667 120.838 33.728 121.393 33.728ZM130.223 38.064H124.655C124.697 38.928 124.911 39.568 125.295 39.984C125.689 40.3893 126.271 40.592 127.039 40.592C127.924 40.592 128.745 40.304 129.503 39.728L130.079 41.104C129.695 41.4133 129.22 41.664 128.655 41.856C128.1 42.0373 127.535 42.128 126.959 42.128C125.636 42.128 124.596 41.7547 123.839 41.008C123.081 40.2613 122.703 39.2373 122.703 37.936C122.703 37.1147 122.868 36.384 123.199 35.744C123.529 35.104 123.993 34.608 124.591 34.256C125.188 33.8933 125.865 33.712 126.623 33.712C127.732 33.712 128.607 34.0747 129.247 34.8C129.897 35.5147 130.223 36.5013 130.223 37.76V38.064ZM126.671 35.152C126.137 35.152 125.7 35.312 125.359 35.632C125.028 35.9413 124.815 36.3947 124.719 36.992H128.479C128.415 36.384 128.228 35.9253 127.919 35.616C127.62 35.3067 127.204 35.152 126.671 35.152Z" fill="white"/>
<defs>
<filter id="filter0_d_3:352" x="0" y="0" width="163" height="80" filterUnits="userSpaceOnUse" color-interpolation-filters="sRGB">
<feFlood flood-opacity="0" result="BackgroundImageFix"/>
<feColorMatrix in="SourceAlpha" type="matrix" values="0 0 0 0 0 0 0 0 0 0 0 0 0 0 0 0 0 0 127 0" result="hardAlpha"/>
<feOffset dy="8"/>
<feGaussianBlur stdDeviation="10"/>
<feColorMatrix type="matrix" values="0 0 0 0 0 0 0 0 0 0 0 0 0 0 0 0 0 0 0.15 0"/>
<feBlend mode="normal" in2="BackgroundImageFix" result="effect1_dropShadow_3:352"/>
<feBlend mode="normal" in="SourceGraphic" in2="effect1_dropShadow_3:352" result="shape"/>
</filter>
</defs>
</svg>
