<svg width="136" height="39" viewBox="0 0 136 39" fill="none" xmlns="http://www.w3.org/2000/svg">
<path d="M11.384 34.6087V14.9758V12.145L2.70903 17.6848V34.6391C2.70903 36.1306 1.49149 37.3481 0 37.3481V38.9614H14.093V37.3481C12.6016 37.3177 11.384 36.1001 11.384 34.6087Z" fill="#00237B"/>
<path d="M55.6416 34.6086V2.83078V0L46.9666 5.50937V34.6086C46.9666 36.1001 45.7491 37.3176 44.2576 37.3176V38.9309H58.3506V37.3176C56.8591 37.3176 55.6416 36.1001 55.6416 34.6086Z" fill="#00237B"/>
<path d="M33.971 12.5407C30.5619 12.5407 28.1268 13.7582 26.6353 16.1629V2.83078V0L17.9603 5.50937V34.6086C17.9603 36.1001 16.7428 37.3176 15.2513 37.3176V38.9309H25.5091H26.6049H31.1098C34.4884 38.9309 37.1975 37.8351 39.2673 35.6131C41.3371 33.4215 42.3416 29.7384 42.3416 24.6552C42.3416 20.6982 41.5806 17.6848 40.0282 15.6454C38.5063 13.5756 36.4974 12.5407 33.971 12.5407ZM28.9182 37.9568C28.4616 37.9568 27.9746 37.896 27.518 37.7438C27.0006 37.5916 26.6657 37.0741 26.6657 36.5262V18.811V18.5371C26.6657 17.5326 27.0006 16.7108 27.7006 16.0411C28.4007 15.3715 29.1921 15.0671 30.1357 15.0671C31.1402 15.0671 31.9316 15.8585 32.5099 17.4413C32.6926 17.8979 32.8143 18.4762 32.9361 19.1458C33.21 20.7591 33.3622 22.9507 33.3622 25.751C33.3622 33.9085 31.8707 37.9568 28.9182 37.9568Z" fill="#00237B"/>
<path d="M136 12.1449H133.93L127.69 30.3167L122.516 14.9453L121.572 12.1449L120.203 8.12704L113.841 12.1449L111.101 13.8799V14.9453C112.715 14.9453 114.145 15.9802 114.663 17.5021L121.877 38.9004H125.468H125.56H125.895H126.808H126.838L128.695 33.391L128.664 33.3301L136 12.1449Z" fill="#00237B"/>
<path d="M7.00057 8.6141C9.37478 8.6141 11.2924 6.69648 11.2924 4.32227C11.2924 1.94807 9.37478 0 7.00057 0C4.62637 0 2.70874 1.91763 2.70874 4.29183C2.70874 6.66604 4.62637 8.6141 7.00057 8.6141Z" fill="#00237B"/>
<path d="M98.8955 12.6624C93.9644 12.6624 89.7335 15.6759 87.9376 19.9373H83.0674C81.2715 15.6454 77.0406 12.6624 72.1096 12.6624C65.5653 12.6624 60.2385 17.9892 60.2385 24.5335C60.2385 31.0778 65.5653 36.4045 72.1096 36.4045C76.9493 36.4045 81.0889 33.5128 82.9457 29.3732L73.9967 25.8423H95.6081H97.13L88.0593 29.4036C89.9161 33.5128 94.0557 36.4045 98.8955 36.4045C105.44 36.4045 110.766 31.0778 110.766 24.5335C110.766 17.9588 105.44 12.6624 98.8955 12.6624Z" fill="#00237B"/>
</svg>
