<svg width="21" height="11" viewBox="0 0 21 11" fill="none" xmlns="http://www.w3.org/2000/svg">
<path d="M1.30005 6.7652e-05C1.19845 -0.00120009 1.09759 0.0153608 1.00331 0.0487877C0.909038 0.0822147 0.823232 0.131841 0.750882 0.194783C0.678532 0.257725 0.621081 0.332727 0.581868 0.41543C0.542654 0.498133 0.522461 0.586889 0.522461 0.676538C0.522461 0.766187 0.542654 0.854943 0.581868 0.937646C0.621081 1.02035 0.678532 1.09535 0.750882 1.15829C0.823232 1.22124 0.909038 1.27086 1.00331 1.30429C1.09759 1.33772 1.19845 1.35428 1.30005 1.35301H19.7C19.8016 1.35428 19.9025 1.33772 19.9968 1.30429C20.0911 1.27086 20.1769 1.22124 20.2492 1.15829C20.3216 1.09535 20.379 1.02035 20.4182 0.937646C20.4574 0.854943 20.4776 0.766187 20.4776 0.676538C20.4776 0.586889 20.4574 0.498133 20.4182 0.41543C20.379 0.332727 20.3216 0.257725 20.2492 0.194783C20.1769 0.131841 20.0911 0.0822147 19.9968 0.0487877C19.9025 0.0153608 19.8016 -0.00120009 19.7 6.7652e-05H1.30005ZM1.30005 4.73536C1.19845 4.73409 1.09759 4.75065 1.00331 4.78408C0.909038 4.81751 0.823232 4.86713 0.750882 4.93008C0.678532 4.99302 0.621081 5.06802 0.581868 5.15072C0.542654 5.23343 0.522461 5.32218 0.522461 5.41183C0.522461 5.50148 0.542654 5.59024 0.581868 5.67294C0.621081 5.75564 0.678532 5.83064 0.750882 5.89359C0.823232 5.95653 0.909038 6.00616 1.00331 6.03958C1.09759 6.07301 1.19845 6.08957 1.30005 6.0883H19.7C19.8016 6.08957 19.9025 6.07301 19.9968 6.03958C20.0911 6.00616 20.1769 5.95653 20.2492 5.89359C20.3216 5.83064 20.379 5.75564 20.4182 5.67294C20.4574 5.59024 20.4776 5.50148 20.4776 5.41183C20.4776 5.32218 20.4574 5.23343 20.4182 5.15072C20.379 5.06802 20.3216 4.99302 20.2492 4.93008C20.1769 4.86713 20.0911 4.81751 19.9968 4.78408C19.9025 4.75065 19.8016 4.73409 19.7 4.73536H1.30005ZM1.30005 9.47065C1.19845 9.46939 1.09759 9.48595 1.00331 9.51937C0.909038 9.5528 0.823232 9.60243 0.750882 9.66537C0.678532 9.72831 0.621081 9.80331 0.581868 9.88602C0.542654 9.96872 0.522461 10.0575 0.522461 10.1471C0.522461 10.2368 0.542654 10.3255 0.581868 10.4082C0.621081 10.4909 0.678532 10.5659 0.750882 10.6289C0.823232 10.6918 0.909038 10.7414 1.00331 10.7749C1.09759 10.8083 1.19845 10.8249 1.30005 10.8236H19.7C19.8016 10.8249 19.9025 10.8083 19.9968 10.7749C20.0911 10.7414 20.1769 10.6918 20.2492 10.6289C20.3216 10.5659 20.379 10.4909 20.4182 10.4082C20.4574 10.3255 20.4776 10.2368 20.4776 10.1471C20.4776 10.0575 20.4574 9.96872 20.4182 9.88602C20.379 9.80331 20.3216 9.72831 20.2492 9.66537C20.1769 9.60243 20.0911 9.5528 19.9968 9.51937C19.9025 9.48595 19.8016 9.46939 19.7 9.47065H1.30005Z" fill="white"/>
</svg>
